<?xml version="1.0" encoding="UTF-8" standalone="no"?>
<!DOCTYPE svg PUBLIC "-//W3C//DTD SVG 1.1//EN"
 "http://www.w3.org/Graphics/SVG/1.1/DTD/svg11.dtd">
<!-- Generated by graphviz version 2.38.0 (20140413.2041)
 -->
<!-- Title: G Pages: 1 -->
<svg width="1824pt" height="124pt"
 viewBox="0.00 0.00 1824.10 123.98" xmlns="http://www.w3.org/2000/svg" xmlns:xlink="http://www.w3.org/1999/xlink">
<g id="graph0" class="graph" transform="scale(1 1) rotate(0) translate(7.992 115.992)">
<title>G</title>
<polygon fill="#000000" stroke="none" points="-7.992,7.992 -7.992,-115.992 1816.11,-115.992 1816.11,7.992 -7.992,7.992"/>
<!-- index.js -->
<g id="node1" class="node"><title>index.js</title>
<ellipse fill="none" stroke="#c6c5fe" cx="900.035" cy="-90" rx="42.4939" ry="18"/>
<text text-anchor="middle" x="900.035" y="-86.3" font-family="Arial" font-size="14.00" fill="#c6c5fe">index.js</text>
</g>
<!-- ../node_modules/fun&#45;array/src/index.js -->
<g id="node2" class="node"><title>../node_modules/fun&#45;array/src/index.js</title>
<ellipse fill="none" stroke="#cfffac" cx="167.035" cy="-18" rx="167.07" ry="18"/>
<text text-anchor="middle" x="167.035" y="-14.3" font-family="Arial" font-size="14.00" fill="#cfffac">../node_modules/fun&#45;array/src/index.js</text>
</g>
<!-- index.js&#45;&gt;../node_modules/fun&#45;array/src/index.js -->
<g id="edge1" class="edge"><title>index.js&#45;&gt;../node_modules/fun&#45;array/src/index.js</title>
<path fill="none" stroke="#757575" d="M859.153,-85.1301C767.031,-76.4053 536.183,-54.5174 343.035,-36 328.12,-34.5701 312.495,-33.0675 296.973,-31.5718"/>
<polygon fill="#757575" stroke="#757575" points="297.085,-28.0666 286.795,-30.5909 296.413,-35.0343 297.085,-28.0666"/>
</g>
<!-- ../node_modules/fun&#45;function/src/index.js -->
<g id="node3" class="node"><title>../node_modules/fun&#45;function/src/index.js</title>
<ellipse fill="none" stroke="#cfffac" cx="531.035" cy="-18" rx="178.969" ry="18"/>
<text text-anchor="middle" x="531.035" y="-14.3" font-family="Arial" font-size="14.00" fill="#cfffac">../node_modules/fun&#45;function/src/index.js</text>
</g>
<!-- index.js&#45;&gt;../node_modules/fun&#45;function/src/index.js -->
<g id="edge2" class="edge"><title>index.js&#45;&gt;../node_modules/fun&#45;function/src/index.js</title>
<path fill="none" stroke="#757575" d="M862.28,-81.8377C806.027,-71.1665 698.557,-50.7792 621.267,-36.1171"/>
<polygon fill="#757575" stroke="#757575" points="621.523,-32.6034 611.046,-34.1782 620.218,-39.4807 621.523,-32.6034"/>
</g>
<!-- ../node_modules/fun&#45;object/src/index.js -->
<g id="node4" class="node"><title>../node_modules/fun&#45;object/src/index.js</title>
<ellipse fill="none" stroke="#cfffac" cx="900.035" cy="-18" rx="172.47" ry="18"/>
<text text-anchor="middle" x="900.035" y="-14.3" font-family="Arial" font-size="14.00" fill="#cfffac">../node_modules/fun&#45;object/src/index.js</text>
</g>
<!-- index.js&#45;&gt;../node_modules/fun&#45;object/src/index.js -->
<g id="edge3" class="edge"><title>index.js&#45;&gt;../node_modules/fun&#45;object/src/index.js</title>
<path fill="none" stroke="#757575" d="M900.035,-71.6966C900.035,-63.9827 900.035,-54.7125 900.035,-46.1124"/>
<polygon fill="#757575" stroke="#757575" points="903.535,-46.1043 900.035,-36.1043 896.535,-46.1044 903.535,-46.1043"/>
</g>
<!-- ../node_modules/fun&#45;predicate/src/index.js -->
<g id="node5" class="node"><title>../node_modules/fun&#45;predicate/src/index.js</title>
<ellipse fill="none" stroke="#cfffac" cx="1275.04" cy="-18" rx="185.467" ry="18"/>
<text text-anchor="middle" x="1275.04" y="-14.3" font-family="Arial" font-size="14.00" fill="#cfffac">../node_modules/fun&#45;predicate/src/index.js</text>
</g>
<!-- index.js&#45;&gt;../node_modules/fun&#45;predicate/src/index.js -->
<g id="edge4" class="edge"><title>index.js&#45;&gt;../node_modules/fun&#45;predicate/src/index.js</title>
<path fill="none" stroke="#757575" d="M938.056,-81.9028C995.197,-71.2365 1104.9,-50.7591 1183.63,-36.0632"/>
<polygon fill="#757575" stroke="#757575" points="1184.36,-39.4862 1193.55,-34.2105 1183.08,-32.605 1184.36,-39.4862"/>
</g>
<!-- ../node_modules/guarded/src/index.js -->
<g id="node6" class="node"><title>../node_modules/guarded/src/index.js</title>
<ellipse fill="none" stroke="#cfffac" cx="1643.04" cy="-18" rx="165.171" ry="18"/>
<text text-anchor="middle" x="1643.04" y="-14.3" font-family="Arial" font-size="14.00" fill="#cfffac">../node_modules/guarded/src/index.js</text>
</g>
<!-- index.js&#45;&gt;../node_modules/guarded/src/index.js -->
<g id="edge5" class="edge"><title>index.js&#45;&gt;../node_modules/guarded/src/index.js</title>
<path fill="none" stroke="#757575" d="M941.098,-85.2392C1034.74,-76.6493 1271.26,-54.8722 1469.04,-36 1483.78,-34.5928 1499.23,-33.1041 1514.58,-31.6164"/>
<polygon fill="#757575" stroke="#757575" points="1515.03,-35.0895 1524.64,-30.6397 1514.35,-28.1223 1515.03,-35.0895"/>
</g>
</g>
</svg>
